<?xml version="1.0" encoding="utf-8" standalone="no"?>
<!DOCTYPE svg PUBLIC "-//W3C//DTD SVG 1.1//EN"
  "http://www.w3.org/Graphics/SVG/1.1/DTD/svg11.dtd">
<svg xmlns:xlink="http://www.w3.org/1999/xlink" width="1080pt" height="504pt" viewBox="0 0 1080 504" xmlns="http://www.w3.org/2000/svg" version="1.1">
 <metadata>
  <rdf:RDF xmlns:dc="http://purl.org/dc/elements/1.1/" xmlns:cc="http://creativecommons.org/ns#" xmlns:rdf="http://www.w3.org/1999/02/22-rdf-syntax-ns#">
   <cc:Work>
    <dc:type rdf:resource="http://purl.org/dc/dcmitype/StillImage"/>
    <dc:date>2026-04-09T18:24:39.676332</dc:date>
    <dc:format>image/svg+xml</dc:format>
    <dc:creator>
     <cc:Agent>
      <dc:title>Matplotlib v3.9.2, https://matplotlib.org/</dc:title>
     </cc:Agent>
    </dc:creator>
   </cc:Work>
  </rdf:RDF>
 </metadata>
 <defs>
  <style type="text/css">*{stroke-linejoin: round; stroke-linecap: butt}</style>
 </defs>
 <g id="figure_1">
  <g id="patch_1">
   <path d="M 0 504 
L 1080 504 
L 1080 0 
L 0 0 
z
" style="fill: #ffffff"/>
  </g>
  <g id="axes_1">
   <g id="patch_2">
    <path d="M 111.066 330.756923 
L 526.932 330.756923 
L 526.932 32.4 
L 111.066 32.4 
z
" style="fill: #ffffff"/>
   </g>
   <g id="matplotlib.axis_1">
    <g id="xtick_1">
     <g id="line2d_1">
      <defs>
       <path id="m25ef9c531d" d="M 0 0 
L 0 3.5 
" style="stroke: #000000; stroke-width: 0.8"/>
      </defs>
      <g>
       <use xlink:href="#m25ef9c531d" x="111.066" y="330.756923" style="stroke: #000000; stroke-width: 0.8"/>
      </g>
     </g>
     <g id="text_1">
      <!-- 0.0 -->
      <g transform="translate(92.316 365.088173) scale(0.3 -0.3)">
       <defs>
        <path id="TimesNewRomanPSMT-30" d="M 231 2094 
Q 231 2819 450 3342 
Q 669 3866 1031 4122 
Q 1313 4325 1613 4325 
Q 2100 4325 2488 3828 
Q 2972 3213 2972 2159 
Q 2972 1422 2759 906 
Q 2547 391 2217 158 
Q 1888 -75 1581 -75 
Q 975 -75 572 641 
Q 231 1244 231 2094 
z
M 844 2016 
Q 844 1141 1059 588 
Q 1238 122 1591 122 
Q 1759 122 1940 273 
Q 2122 425 2216 781 
Q 2359 1319 2359 2297 
Q 2359 3022 2209 3506 
Q 2097 3866 1919 4016 
Q 1791 4119 1609 4119 
Q 1397 4119 1231 3928 
Q 1006 3669 925 3112 
Q 844 2556 844 2016 
z
" transform="scale(0.015625)"/>
        <path id="TimesNewRomanPSMT-2e" d="M 800 606 
Q 947 606 1047 504 
Q 1147 403 1147 259 
Q 1147 116 1045 14 
Q 944 -88 800 -88 
Q 656 -88 554 14 
Q 453 116 453 259 
Q 453 406 554 506 
Q 656 606 800 606 
z
" transform="scale(0.015625)"/>
       </defs>
       <use xlink:href="#TimesNewRomanPSMT-30"/>
       <use xlink:href="#TimesNewRomanPSMT-2e" x="50"/>
       <use xlink:href="#TimesNewRomanPSMT-30" x="75"/>
      </g>
     </g>
    </g>
    <g id="xtick_2">
     <g id="line2d_2">
      <g>
       <use xlink:href="#m25ef9c531d" x="217.154263" y="330.756923" style="stroke: #000000; stroke-width: 0.8"/>
      </g>
     </g>
     <g id="text_2">
      <!-- 2.5 -->
      <g transform="translate(198.404263 365.088173) scale(0.3 -0.3)">
       <defs>
        <path id="TimesNewRomanPSMT-32" d="M 2934 816 
L 2638 0 
L 138 0 
L 138 116 
Q 1241 1122 1691 1759 
Q 2141 2397 2141 2925 
Q 2141 3328 1894 3587 
Q 1647 3847 1303 3847 
Q 991 3847 742 3664 
Q 494 3481 375 3128 
L 259 3128 
Q 338 3706 661 4015 
Q 984 4325 1469 4325 
Q 1984 4325 2329 3994 
Q 2675 3663 2675 3213 
Q 2675 2891 2525 2569 
Q 2294 2063 1775 1497 
Q 997 647 803 472 
L 1909 472 
Q 2247 472 2383 497 
Q 2519 522 2628 598 
Q 2738 675 2819 816 
L 2934 816 
z
" transform="scale(0.015625)"/>
        <path id="TimesNewRomanPSMT-35" d="M 2778 4238 
L 2534 3706 
L 1259 3706 
L 981 3138 
Q 1809 3016 2294 2522 
Q 2709 2097 2709 1522 
Q 2709 1188 2573 903 
Q 2438 619 2231 419 
Q 2025 219 1772 97 
Q 1413 -75 1034 -75 
Q 653 -75 479 54 
Q 306 184 306 341 
Q 306 428 378 495 
Q 450 563 559 563 
Q 641 563 702 538 
Q 763 513 909 409 
Q 1144 247 1384 247 
Q 1750 247 2026 523 
Q 2303 800 2303 1197 
Q 2303 1581 2056 1914 
Q 1809 2247 1375 2428 
Q 1034 2569 447 2591 
L 1259 4238 
L 2778 4238 
z
" transform="scale(0.015625)"/>
       </defs>
       <use xlink:href="#TimesNewRomanPSMT-32"/>
       <use xlink:href="#TimesNewRomanPSMT-2e" x="50"/>
       <use xlink:href="#TimesNewRomanPSMT-35" x="75"/>
      </g>
     </g>
    </g>
    <g id="xtick_3">
     <g id="line2d_3">
      <g>
       <use xlink:href="#m25ef9c531d" x="323.242526" y="330.756923" style="stroke: #000000; stroke-width: 0.8"/>
      </g>
     </g>
     <g id="text_3">
      <!-- 5.0 -->
      <g transform="translate(304.492526 365.088173) scale(0.3 -0.3)">
       <use xlink:href="#TimesNewRomanPSMT-35"/>
       <use xlink:href="#TimesNewRomanPSMT-2e" x="50"/>
       <use xlink:href="#TimesNewRomanPSMT-30" x="75"/>
      </g>
     </g>
    </g>
    <g id="xtick_4">
     <g id="line2d_4">
      <g>
       <use xlink:href="#m25ef9c531d" x="429.33079" y="330.756923" style="stroke: #000000; stroke-width: 0.8"/>
      </g>
     </g>
     <g id="text_4">
      <!-- 7.5 -->
      <g transform="translate(410.58079 365.088173) scale(0.3 -0.3)">
       <defs>
        <path id="TimesNewRomanPSMT-37" d="M 644 4238 
L 2916 4238 
L 2916 4119 
L 1503 -88 
L 1153 -88 
L 2419 3728 
L 1253 3728 
Q 900 3728 750 3644 
Q 488 3500 328 3200 
L 238 3234 
L 644 4238 
z
" transform="scale(0.015625)"/>
       </defs>
       <use xlink:href="#TimesNewRomanPSMT-37"/>
       <use xlink:href="#TimesNewRomanPSMT-2e" x="50"/>
       <use xlink:href="#TimesNewRomanPSMT-35" x="75"/>
      </g>
     </g>
    </g>
    <g id="text_5">
     <!-- t -->
     <g transform="translate(313.44275 405.280361) scale(0.4 -0.4)">
      <defs>
       <path id="TimesNewRomanPSMT-74" d="M 1031 3803 
L 1031 2863 
L 1700 2863 
L 1700 2644 
L 1031 2644 
L 1031 788 
Q 1031 509 1111 412 
Q 1191 316 1316 316 
Q 1419 316 1516 380 
Q 1613 444 1666 569 
L 1788 569 
Q 1678 263 1478 108 
Q 1278 -47 1066 -47 
Q 922 -47 784 33 
Q 647 113 581 261 
Q 516 409 516 719 
L 516 2644 
L 63 2644 
L 63 2747 
Q 234 2816 414 2980 
Q 594 3144 734 3369 
Q 806 3488 934 3803 
L 1031 3803 
z
" transform="scale(0.015625)"/>
      </defs>
      <use xlink:href="#TimesNewRomanPSMT-74"/>
     </g>
    </g>
   </g>
   <g id="matplotlib.axis_2">
    <g id="ytick_1">
     <g id="line2d_5">
      <defs>
       <path id="m4a3723b383" d="M 0 0 
L -3.5 0 
" style="stroke: #000000; stroke-width: 0.8"/>
      </defs>
      <g>
       <use xlink:href="#m4a3723b383" x="111.066" y="330.756923" style="stroke: #000000; stroke-width: 0.8"/>
      </g>
     </g>
     <g id="text_6">
      <!-- 0 -->
      <g transform="translate(82.566 341.172548) scale(0.3 -0.3)">
       <use xlink:href="#TimesNewRomanPSMT-30"/>
      </g>
     </g>
    </g>
    <g id="ytick_2">
     <g id="line2d_6">
      <g>
       <use xlink:href="#m4a3723b383" x="111.066" y="213.163207" style="stroke: #000000; stroke-width: 0.8"/>
      </g>
     </g>
     <g id="text_7">
      <!-- 2 -->
      <g transform="translate(82.566 223.578832) scale(0.3 -0.3)">
       <use xlink:href="#TimesNewRomanPSMT-32"/>
      </g>
     </g>
    </g>
    <g id="ytick_3">
     <g id="line2d_7">
      <g>
       <use xlink:href="#m4a3723b383" x="111.066" y="95.569491" style="stroke: #000000; stroke-width: 0.8"/>
      </g>
     </g>
     <g id="text_8">
      <!-- 4 -->
      <g transform="translate(82.566 105.985116) scale(0.3 -0.3)">
       <defs>
        <path id="TimesNewRomanPSMT-34" d="M 2978 1563 
L 2978 1119 
L 2409 1119 
L 2409 0 
L 1894 0 
L 1894 1119 
L 100 1119 
L 100 1519 
L 2066 4325 
L 2409 4325 
L 2409 1563 
L 2978 1563 
z
M 1894 1563 
L 1894 3666 
L 406 1563 
L 1894 1563 
z
" transform="scale(0.015625)"/>
       </defs>
       <use xlink:href="#TimesNewRomanPSMT-34"/>
      </g>
     </g>
    </g>
    <g id="text_9">
     <!-- $E_{propel}$ -->
     <g transform="translate(64.166 239.378462) rotate(-90) scale(0.4 -0.4)">
      <defs>
       <path id="DejaVuSans-Oblique-45" d="M 1081 4666 
L 4031 4666 
L 3928 4134 
L 1606 4134 
L 1338 2753 
L 3566 2753 
L 3463 2222 
L 1234 2222 
L 909 531 
L 3284 531 
L 3181 0 
L 172 0 
L 1081 4666 
z
" transform="scale(0.015625)"/>
       <path id="DejaVuSans-Oblique-70" d="M 3175 2156 
Q 3175 2616 2975 2859 
Q 2775 3103 2400 3103 
Q 2144 3103 1911 2972 
Q 1678 2841 1497 2591 
Q 1319 2344 1212 1994 
Q 1106 1644 1106 1300 
Q 1106 863 1306 627 
Q 1506 391 1875 391 
Q 2147 391 2380 519 
Q 2613 647 2778 891 
Q 2956 1147 3065 1494 
Q 3175 1841 3175 2156 
z
M 1394 2969 
Q 1625 3272 1939 3428 
Q 2253 3584 2638 3584 
Q 3175 3584 3472 3232 
Q 3769 2881 3769 2247 
Q 3769 1728 3584 1258 
Q 3400 788 3053 416 
Q 2822 169 2531 39 
Q 2241 -91 1919 -91 
Q 1547 -91 1294 64 
Q 1041 219 916 525 
L 556 -1331 
L -19 -1331 
L 922 3500 
L 1497 3500 
L 1394 2969 
z
" transform="scale(0.015625)"/>
       <path id="DejaVuSans-Oblique-72" d="M 2853 2969 
Q 2766 3016 2653 3041 
Q 2541 3066 2413 3066 
Q 1953 3066 1609 2717 
Q 1266 2369 1153 1784 
L 800 0 
L 225 0 
L 909 3500 
L 1484 3500 
L 1375 2956 
Q 1603 3259 1920 3421 
Q 2238 3584 2597 3584 
Q 2691 3584 2781 3573 
Q 2872 3563 2963 3538 
L 2853 2969 
z
" transform="scale(0.015625)"/>
       <path id="DejaVuSans-Oblique-6f" d="M 1625 -91 
Q 1009 -91 651 289 
Q 294 669 294 1325 
Q 294 1706 417 2101 
Q 541 2497 738 2766 
Q 1047 3184 1428 3384 
Q 1809 3584 2291 3584 
Q 2888 3584 3255 3212 
Q 3622 2841 3622 2241 
Q 3622 1825 3500 1412 
Q 3378 1000 3181 728 
Q 2875 309 2494 109 
Q 2113 -91 1625 -91 
z
M 891 1344 
Q 891 869 1089 633 
Q 1288 397 1691 397 
Q 2269 397 2648 901 
Q 3028 1406 3028 2181 
Q 3028 2634 2825 2865 
Q 2622 3097 2228 3097 
Q 1903 3097 1650 2945 
Q 1397 2794 1197 2484 
Q 1050 2253 970 1956 
Q 891 1659 891 1344 
z
" transform="scale(0.015625)"/>
       <path id="DejaVuSans-Oblique-65" d="M 3078 2063 
Q 3088 2113 3092 2166 
Q 3097 2219 3097 2272 
Q 3097 2653 2873 2875 
Q 2650 3097 2266 3097 
Q 1838 3097 1509 2826 
Q 1181 2556 1013 2059 
L 3078 2063 
z
M 3578 1613 
L 903 1613 
Q 884 1494 878 1425 
Q 872 1356 872 1306 
Q 872 872 1139 634 
Q 1406 397 1894 397 
Q 2269 397 2603 481 
Q 2938 566 3225 728 
L 3116 159 
Q 2806 34 2476 -28 
Q 2147 -91 1806 -91 
Q 1078 -91 686 257 
Q 294 606 294 1247 
Q 294 1794 489 2264 
Q 684 2734 1063 3103 
Q 1306 3334 1642 3459 
Q 1978 3584 2356 3584 
Q 2950 3584 3301 3228 
Q 3653 2872 3653 2272 
Q 3653 2128 3634 1964 
Q 3616 1800 3578 1613 
z
" transform="scale(0.015625)"/>
       <path id="DejaVuSans-Oblique-6c" d="M 1172 4863 
L 1747 4863 
L 800 0 
L 225 0 
L 1172 4863 
z
" transform="scale(0.015625)"/>
      </defs>
      <use xlink:href="#DejaVuSans-Oblique-45" transform="translate(0 0.09375)"/>
      <use xlink:href="#DejaVuSans-Oblique-70" transform="translate(63.183594 -16.3125) scale(0.7)"/>
      <use xlink:href="#DejaVuSans-Oblique-72" transform="translate(107.617188 -16.3125) scale(0.7)"/>
      <use xlink:href="#DejaVuSans-Oblique-6f" transform="translate(136.396484 -16.3125) scale(0.7)"/>
      <use xlink:href="#DejaVuSans-Oblique-70" transform="translate(179.223633 -16.3125) scale(0.7)"/>
      <use xlink:href="#DejaVuSans-Oblique-65" transform="translate(223.657227 -16.3125) scale(0.7)"/>
      <use xlink:href="#DejaVuSans-Oblique-6c" transform="translate(266.723633 -16.3125) scale(0.7)"/>
     </g>
    </g>
   </g>
   <g id="line2d_8">
    <path d="M 111.066 330.323276 
L 115.309531 329.901952 
L 119.553061 329.533759 
L 123.796592 329.103655 
L 128.040122 328.677851 
L 132.283653 328.29462 
L 136.527184 327.953158 
L 140.770713 327.550429 
L 145.014245 327.22155 
L 149.257774 326.947018 
L 153.501305 326.610847 
L 157.744837 326.391612 
L 161.988368 326.152778 
L 166.231895 325.828754 
L 170.475426 325.552309 
L 174.718958 325.315622 
L 178.962489 325.071509 
L 183.206021 324.87248 
L 187.449548 324.591294 
L 191.693079 324.274421 
L 195.936611 324.053574 
L 200.180137 323.878567 
L 204.423674 323.445686 
L 208.6672 322.950969 
L 212.910737 322.383615 
L 217.154263 321.897041 
L 221.39779 321.323966 
L 225.641326 320.743616 
L 229.884853 320.209336 
L 234.128389 319.697235 
L 238.371916 319.146857 
L 242.615442 318.664257 
L 246.858979 318.125696 
L 251.102505 317.598817 
L 255.346042 317.077 
L 259.589569 316.613096 
L 263.833095 316.281943 
L 268.076632 315.988046 
L 272.320158 315.829275 
L 276.563695 315.675617 
L 280.807221 315.556104 
L 285.050748 315.247816 
L 289.294274 315.010041 
L 293.537821 314.703037 
L 297.781347 314.478612 
L 302.024874 314.117878 
L 306.2684 313.689114 
L 310.511927 313.370347 
L 314.755474 313.112392 
L 318.999 312.815908 
L 323.242526 312.394845 
L 327.486053 312.004099 
L 331.729579 311.656856 
L 335.973126 311.371426 
L 340.216653 311.06911 
L 344.460179 310.596245 
L 348.703706 310.302509 
L 352.947232 309.855776 
L 357.190779 309.327033 
L 361.434305 308.804936 
L 365.677832 308.391896 
L 369.921358 308.098192 
L 374.164885 307.80061 
L 378.408431 307.525677 
L 382.651958 307.227505 
L 386.895484 306.936367 
L 391.139011 306.631498 
L 395.382537 306.243757 
L 399.626084 305.934956 
L 403.869611 305.543827 
L 408.113137 305.126876 
L 412.356664 304.749172 
L 416.60019 304.413187 
L 420.843737 304.13564 
L 425.087263 303.789251 
L 429.33079 303.471021 
L 433.574316 303.079437 
L 437.817843 302.771888 
L 442.061389 302.450283 
L 446.304916 302.121455 
L 450.548442 301.764686 
L 454.791989 301.40804 
L 459.035495 300.915288 
L 463.279042 300.472066 
L 467.522548 300.10017 
L 471.766095 299.826837 
L 476.009642 299.511453 
L 480.253148 299.120245 
L 484.496695 298.737659 
L 488.740201 298.337906 
L 492.983748 297.849672 
L 497.227294 297.441202 
L 501.470801 297.128114 
L 505.714347 296.815191 
L 509.957854 296.516417 
L 514.2014 296.142728 
L 518.444947 295.870722 
L 522.688453 295.564747 
L 526.932 295.241105 
" clip-path="url(#p2b8d984da8)" style="fill: none; stroke: #ff0000; stroke-width: 3; stroke-linecap: square"/>
   </g>
   <g id="line2d_9">
    <path d="M 111.066 329.746008 
L 115.309531 328.526788 
L 119.553061 327.065146 
L 123.796592 325.325364 
L 128.040122 323.271218 
L 132.283653 320.867346 
L 136.527183 318.080848 
L 140.770714 314.883046 
L 145.014244 311.251304 
L 149.257775 307.170772 
L 153.501305 302.635922 
L 157.744836 297.651718 
L 161.988366 292.234317 
L 166.231897 286.411185 
L 170.475427 280.220595 
L 174.718958 273.710507 
L 178.962488 266.936896 
L 183.206019 259.961634 
L 187.44955 252.850091 
L 191.69308 245.668614 
L 195.936611 238.482064 
L 200.180141 231.351585 
L 204.423672 224.332716 
L 208.667202 217.473949 
L 212.910733 210.815769 
L 217.154263 204.390187 
L 221.397794 198.220711 
L 225.641324 192.322714 
L 229.884855 186.704088 
L 234.128385 181.36612 
L 238.371916 176.30448 
L 242.615446 171.510262 
L 246.858977 166.971002 
L 251.102507 162.671628 
L 255.346038 158.595314 
L 259.589569 154.724209 
L 263.833099 151.040053 
L 268.07663 147.524663 
L 272.32016 144.160319 
L 276.563691 140.930045 
L 280.807221 137.817815 
L 285.050752 134.80869 
L 289.294282 131.888908 
L 293.537813 129.045933 
L 297.781343 126.268475 
L 302.024874 123.546495 
L 306.268404 120.871198 
L 310.511935 118.235007 
L 314.755465 115.631546 
L 318.998996 113.055608 
L 323.242526 110.503121 
L 327.486057 107.971108 
L 331.729588 105.457643 
L 335.973118 102.961796 
L 340.216649 100.48357 
L 344.460179 98.023834 
L 348.70371 95.584232 
L 352.94724 93.167098 
L 357.190771 90.775351 
L 361.434301 88.412385 
L 365.677832 86.081953 
L 369.921362 83.788051 
L 374.164893 81.534802 
L 378.408423 79.326348 
L 382.651954 77.166758 
L 386.895484 75.05995 
L 391.139015 73.009649 
L 395.382545 71.019372 
L 399.626076 69.09245 
L 403.869607 67.232097 
L 408.113137 65.441504 
L 412.356668 63.723978 
L 416.600198 62.083081 
L 420.843729 60.522774 
L 425.087259 59.047518 
L 429.33079 57.662325 
L 433.57432 56.372696 
L 437.817851 55.184442 
L 442.061381 54.103367 
L 446.304912 53.134789 
L 450.548442 52.28295 
L 454.791973 51.550313 
L 459.035503 50.936854 
L 463.279034 50.439382 
L 467.522564 50.051012 
L 471.766095 49.760846 
L 476.009626 49.553958 
L 480.253156 49.411688 
L 484.496687 49.312279 
L 488.740217 49.231799 
L 492.983748 49.145271 
L 497.227278 49.027919 
L 501.470809 48.856391 
L 505.714339 48.60987 
L 509.95787 48.270942 
L 514.2014 47.826191 
L 518.444931 47.266462 
L 522.688461 46.586823 
" clip-path="url(#p2b8d984da8)" style="fill: none; stroke-dasharray: 11.1,4.8; stroke-dashoffset: 0; stroke: #0000ff; stroke-width: 3"/>
   </g>
   <g id="patch_3">
    <path d="M 111.066 330.756923 
L 111.066 32.4 
" style="fill: none; stroke: #000000; stroke-width: 1.5; stroke-linejoin: miter; stroke-linecap: square"/>
   </g>
   <g id="patch_4">
    <path d="M 526.932 330.756923 
L 526.932 32.4 
" style="fill: none; stroke: #000000; stroke-width: 1.5; stroke-linejoin: miter; stroke-linecap: square"/>
   </g>
   <g id="patch_5">
    <path d="M 111.066 330.756923 
L 526.932 330.756923 
" style="fill: none; stroke: #000000; stroke-width: 1.5; stroke-linejoin: miter; stroke-linecap: square"/>
   </g>
   <g id="patch_6">
    <path d="M 111.066 32.4 
L 526.932 32.4 
" style="fill: none; stroke: #000000; stroke-width: 1.5; stroke-linejoin: miter; stroke-linecap: square"/>
   </g>
  </g>
  <g id="axes_2">
   <g id="patch_7">
    <path d="M 631.734 330.756923 
L 1047.6 330.756923 
L 1047.6 32.4 
L 631.734 32.4 
z
" style="fill: #ffffff"/>
   </g>
   <g id="matplotlib.axis_3">
    <g id="xtick_5">
     <g id="line2d_10">
      <g>
       <use xlink:href="#m25ef9c531d" x="631.734" y="330.756923" style="stroke: #000000; stroke-width: 0.8"/>
      </g>
     </g>
     <g id="text_10">
      <!-- 0.0 -->
      <g transform="translate(612.984 365.088173) scale(0.3 -0.3)">
       <use xlink:href="#TimesNewRomanPSMT-30"/>
       <use xlink:href="#TimesNewRomanPSMT-2e" x="50"/>
       <use xlink:href="#TimesNewRomanPSMT-30" x="75"/>
      </g>
     </g>
    </g>
    <g id="xtick_6">
     <g id="line2d_11">
      <g>
       <use xlink:href="#m25ef9c531d" x="737.822263" y="330.756923" style="stroke: #000000; stroke-width: 0.8"/>
      </g>
     </g>
     <g id="text_11">
      <!-- 2.5 -->
      <g transform="translate(719.072263 365.088173) scale(0.3 -0.3)">
       <use xlink:href="#TimesNewRomanPSMT-32"/>
       <use xlink:href="#TimesNewRomanPSMT-2e" x="50"/>
       <use xlink:href="#TimesNewRomanPSMT-35" x="75"/>
      </g>
     </g>
    </g>
    <g id="xtick_7">
     <g id="line2d_12">
      <g>
       <use xlink:href="#m25ef9c531d" x="843.910526" y="330.756923" style="stroke: #000000; stroke-width: 0.8"/>
      </g>
     </g>
     <g id="text_12">
      <!-- 5.0 -->
      <g transform="translate(825.160526 365.088173) scale(0.3 -0.3)">
       <use xlink:href="#TimesNewRomanPSMT-35"/>
       <use xlink:href="#TimesNewRomanPSMT-2e" x="50"/>
       <use xlink:href="#TimesNewRomanPSMT-30" x="75"/>
      </g>
     </g>
    </g>
    <g id="xtick_8">
     <g id="line2d_13">
      <g>
       <use xlink:href="#m25ef9c531d" x="949.99879" y="330.756923" style="stroke: #000000; stroke-width: 0.8"/>
      </g>
     </g>
     <g id="text_13">
      <!-- 7.5 -->
      <g transform="translate(931.24879 365.088173) scale(0.3 -0.3)">
       <use xlink:href="#TimesNewRomanPSMT-37"/>
       <use xlink:href="#TimesNewRomanPSMT-2e" x="50"/>
       <use xlink:href="#TimesNewRomanPSMT-35" x="75"/>
      </g>
     </g>
    </g>
    <g id="text_14">
     <!-- t -->
     <g transform="translate(834.11075 405.280361) scale(0.4 -0.4)">
      <use xlink:href="#TimesNewRomanPSMT-74"/>
     </g>
    </g>
   </g>
   <g id="matplotlib.axis_4">
    <g id="ytick_4">
     <g id="line2d_14">
      <g>
       <use xlink:href="#m4a3723b383" x="631.734" y="330.756923" style="stroke: #000000; stroke-width: 0.8"/>
      </g>
     </g>
     <g id="text_15">
      <!-- 0 -->
      <g transform="translate(603.234 341.172548) scale(0.3 -0.3)">
       <use xlink:href="#TimesNewRomanPSMT-30"/>
      </g>
     </g>
    </g>
    <g id="ytick_5">
     <g id="line2d_15">
      <g>
       <use xlink:href="#m4a3723b383" x="631.734" y="205.606256" style="stroke: #000000; stroke-width: 0.8"/>
      </g>
     </g>
     <g id="text_16">
      <!-- 2 -->
      <g transform="translate(603.234 216.021881) scale(0.3 -0.3)">
       <use xlink:href="#TimesNewRomanPSMT-32"/>
      </g>
     </g>
    </g>
    <g id="ytick_6">
     <g id="line2d_16">
      <g>
       <use xlink:href="#m4a3723b383" x="631.734" y="80.455589" style="stroke: #000000; stroke-width: 0.8"/>
      </g>
     </g>
     <g id="text_17">
      <!-- 4 -->
      <g transform="translate(603.234 90.871214) scale(0.3 -0.3)">
       <use xlink:href="#TimesNewRomanPSMT-34"/>
      </g>
     </g>
    </g>
    <g id="text_18">
     <!-- $E_{total}$ -->
     <g transform="translate(588.67775 226.778462) rotate(-90) scale(0.4 -0.4)">
      <defs>
       <path id="DejaVuSans-Oblique-74" d="M 2706 3500 
L 2619 3053 
L 1472 3053 
L 1100 1153 
Q 1081 1047 1072 975 
Q 1063 903 1063 863 
Q 1063 663 1183 572 
Q 1303 481 1569 481 
L 2150 481 
L 2053 0 
L 1503 0 
Q 991 0 739 200 
Q 488 400 488 806 
Q 488 878 497 964 
Q 506 1050 525 1153 
L 897 3053 
L 409 3053 
L 500 3500 
L 978 3500 
L 1172 4494 
L 1747 4494 
L 1556 3500 
L 2706 3500 
z
" transform="scale(0.015625)"/>
       <path id="DejaVuSans-Oblique-61" d="M 3438 1997 
L 3047 0 
L 2472 0 
L 2578 531 
Q 2325 219 2001 64 
Q 1678 -91 1281 -91 
Q 834 -91 548 182 
Q 263 456 263 884 
Q 263 1497 752 1853 
Q 1241 2209 2100 2209 
L 2900 2209 
L 2931 2363 
Q 2938 2388 2941 2417 
Q 2944 2447 2944 2509 
Q 2944 2788 2717 2942 
Q 2491 3097 2081 3097 
Q 1800 3097 1504 3025 
Q 1209 2953 897 2809 
L 997 3341 
Q 1322 3463 1633 3523 
Q 1944 3584 2234 3584 
Q 2853 3584 3176 3315 
Q 3500 3047 3500 2534 
Q 3500 2431 3484 2292 
Q 3469 2153 3438 1997 
z
M 2816 1759 
L 2241 1759 
Q 1534 1759 1195 1570 
Q 856 1381 856 984 
Q 856 709 1029 553 
Q 1203 397 1509 397 
Q 1978 397 2328 733 
Q 2678 1069 2791 1631 
L 2816 1759 
z
" transform="scale(0.015625)"/>
      </defs>
      <use xlink:href="#DejaVuSans-Oblique-45" transform="translate(0 0.09375)"/>
      <use xlink:href="#DejaVuSans-Oblique-74" transform="translate(63.183594 -16.3125) scale(0.7)"/>
      <use xlink:href="#DejaVuSans-Oblique-6f" transform="translate(90.629883 -16.3125) scale(0.7)"/>
      <use xlink:href="#DejaVuSans-Oblique-74" transform="translate(133.457031 -16.3125) scale(0.7)"/>
      <use xlink:href="#DejaVuSans-Oblique-61" transform="translate(160.90332 -16.3125) scale(0.7)"/>
      <use xlink:href="#DejaVuSans-Oblique-6c" transform="translate(203.798828 -16.3125) scale(0.7)"/>
     </g>
    </g>
   </g>
   <g id="line2d_17">
    <path d="M 631.734 330.295408 
L 635.977531 329.873441 
L 640.221061 329.529577 
L 644.464592 329.102972 
L 648.708122 328.665998 
L 652.951653 328.268382 
L 657.195184 327.919806 
L 661.438713 327.387294 
L 665.682245 326.954755 
L 669.925774 326.509707 
L 674.169305 325.897011 
L 678.412837 325.564519 
L 682.656368 324.947841 
L 686.899895 324.021174 
L 691.143426 323.007668 
L 695.386958 322.153671 
L 699.630489 320.896039 
L 703.874021 319.62141 
L 708.117548 317.640592 
L 712.361079 315.383666 
L 716.604611 312.775715 
L 720.848137 309.861138 
L 725.091674 306.050974 
L 729.3352 301.630986 
L 733.578737 296.80187 
L 737.822263 291.844913 
L 742.06579 286.686296 
L 746.309326 281.541959 
L 750.552853 276.580464 
L 754.796389 271.84237 
L 759.039916 267.26943 
L 763.283442 263.07219 
L 767.526979 258.961155 
L 771.770505 255.031663 
L 776.014042 251.198492 
L 780.257569 247.549356 
L 784.501095 244.402572 
L 788.744632 241.265023 
L 792.988158 238.441318 
L 797.231695 235.997048 
L 801.475221 232.756004 
L 805.718748 229.612576 
L 809.962274 225.749962 
L 814.205821 221.907122 
L 818.449347 218.180881 
L 822.692874 214.049914 
L 826.9364 209.616327 
L 831.179927 205.507775 
L 835.423474 201.847526 
L 839.667 198.188887 
L 843.910526 194.339497 
L 848.154053 190.736239 
L 852.397579 187.437814 
L 856.641126 184.539127 
L 860.884653 181.532289 
L 865.128179 177.598561 
L 869.371706 174.799946 
L 873.615232 170.58758 
L 877.858779 165.757437 
L 882.102305 160.739374 
L 886.345832 156.14879 
L 890.589358 153.037045 
L 894.832885 149.532141 
L 899.076431 146.814489 
L 903.319958 143.99377 
L 907.563484 141.001616 
L 911.807011 137.929536 
L 916.050537 134.402175 
L 920.294084 131.781524 
L 924.537611 128.832254 
L 928.781137 126.026193 
L 933.024664 123.683457 
L 937.26819 121.618221 
L 941.511737 120.072337 
L 945.755263 118.264797 
L 949.99879 116.603721 
L 954.242316 114.701349 
L 958.485843 112.96792 
L 962.729389 111.069599 
L 966.972916 109.239209 
L 971.216442 107.179176 
L 975.459989 104.768525 
L 979.703495 102.026542 
L 983.947042 99.160943 
L 988.190548 96.407863 
L 992.434095 93.656327 
L 996.677642 90.423316 
L 1000.921148 86.820064 
L 1005.164695 83.02657 
L 1009.408201 78.949472 
L 1013.651748 74.204605 
L 1017.895294 69.913104 
L 1022.138801 66.394002 
L 1026.382347 62.877755 
L 1030.625854 59.716238 
L 1034.8694 55.989435 
L 1039.112947 52.879291 
L 1043.356453 49.80199 
L 1047.6 46.585496 
" clip-path="url(#p51e4af11d0)" style="fill: none; stroke: #ff0000; stroke-width: 3; stroke-linecap: square"/>
   </g>
   <g id="line2d_18">
    <path d="M 631.734 329.681043 
L 635.977531 328.605163 
L 640.221061 327.529283 
L 644.464592 326.453403 
L 648.708122 325.377523 
L 652.951653 324.301643 
L 657.195183 323.225763 
L 661.438714 322.149883 
L 665.682244 321.074003 
L 669.925775 319.998123 
L 674.169305 318.922243 
L 678.412836 317.846363 
L 682.656366 316.770483 
L 686.899897 315.694603 
L 691.143427 314.618723 
L 695.386958 313.542843 
L 699.630488 312.466963 
L 703.874019 311.391083 
L 708.11755 310.315203 
L 712.36108 309.239323 
L 716.604611 308.163443 
L 720.848141 307.087563 
L 725.091672 306.011683 
L 729.335202 304.935803 
L 733.578733 303.859923 
L 737.822263 302.784043 
L 742.065794 301.708163 
L 746.309324 300.632283 
L 750.552855 299.556403 
L 754.796385 298.480523 
L 759.039916 297.404643 
L 763.283446 296.328763 
L 767.526977 295.252883 
L 771.770507 294.177003 
L 776.014038 293.101123 
L 780.257569 292.025243 
L 784.501099 290.949363 
L 788.74463 289.873483 
L 792.98816 288.797603 
L 797.231691 287.721723 
L 801.475221 286.645843 
L 805.718752 285.569963 
L 809.962282 284.494083 
L 814.205813 283.418203 
L 818.449343 282.342323 
L 822.692874 281.266443 
L 826.936404 280.190563 
L 831.179935 279.114683 
L 835.423465 278.038803 
L 839.666996 276.962923 
L 843.910526 275.887043 
L 848.154057 274.811163 
L 852.397588 273.735283 
L 856.641118 272.659403 
L 860.884649 271.583523 
L 865.128179 270.507643 
L 869.37171 269.431763 
L 873.61524 268.355883 
L 877.858771 267.280003 
L 882.102301 266.204123 
L 886.345832 265.128243 
L 890.589362 264.052363 
L 894.832893 262.976483 
L 899.076423 261.900603 
L 903.319954 260.824723 
L 907.563484 259.748843 
L 911.807015 258.672963 
L 916.050545 257.597083 
L 920.294076 256.521203 
L 924.537607 255.445323 
L 928.781137 254.369443 
L 933.024668 253.293563 
L 937.268198 252.217683 
L 941.511729 251.141803 
L 945.755259 250.065923 
L 949.99879 248.990043 
L 954.24232 247.914163 
L 958.485851 246.838283 
L 962.729381 245.762403 
L 966.972912 244.686523 
L 971.216442 243.610643 
L 975.459973 242.534763 
L 979.703503 241.458883 
L 983.947034 240.383003 
L 988.190564 239.307123 
L 992.434095 238.231243 
L 996.677626 237.155363 
L 1000.921156 236.079483 
L 1005.164687 235.003603 
L 1009.408217 233.927723 
L 1013.651748 232.851843 
L 1017.895278 231.775963 
L 1022.138809 230.700083 
L 1026.382339 229.624203 
L 1030.62587 228.548323 
L 1034.8694 227.472443 
L 1039.112931 226.396563 
L 1043.356461 225.320683 
" clip-path="url(#p51e4af11d0)" style="fill: none; stroke-dasharray: 11.1,4.8; stroke-dashoffset: 0; stroke: #0000ff; stroke-width: 3"/>
   </g>
   <g id="patch_8">
    <path d="M 631.734 330.756923 
L 631.734 32.4 
" style="fill: none; stroke: #000000; stroke-width: 1.5; stroke-linejoin: miter; stroke-linecap: square"/>
   </g>
   <g id="patch_9">
    <path d="M 1047.6 330.756923 
L 1047.6 32.4 
" style="fill: none; stroke: #000000; stroke-width: 1.5; stroke-linejoin: miter; stroke-linecap: square"/>
   </g>
   <g id="patch_10">
    <path d="M 631.734 330.756923 
L 1047.6 330.756923 
" style="fill: none; stroke: #000000; stroke-width: 1.5; stroke-linejoin: miter; stroke-linecap: square"/>
   </g>
   <g id="patch_11">
    <path d="M 631.734 32.4 
L 1047.6 32.4 
" style="fill: none; stroke: #000000; stroke-width: 1.5; stroke-linejoin: miter; stroke-linecap: square"/>
   </g>
  </g>
  <g id="legend_1">
   <g id="line2d_19">
    <path d="M 281.885156 450.363281 
L 311.885156 450.363281 
L 341.885156 450.363281 
" style="fill: none; stroke: #ff0000; stroke-width: 3; stroke-linecap: square"/>
   </g>
   <g id="text_19">
    <!-- Smart agent -->
    <g transform="translate(365.885156 460.863281) scale(0.3 -0.3)">
     <defs>
      <path id="TimesNewRomanPSMT-53" d="M 2934 4334 
L 2934 2869 
L 2819 2869 
Q 2763 3291 2617 3541 
Q 2472 3791 2203 3937 
Q 1934 4084 1647 4084 
Q 1322 4084 1109 3886 
Q 897 3688 897 3434 
Q 897 3241 1031 3081 
Q 1225 2847 1953 2456 
Q 2547 2138 2764 1967 
Q 2981 1797 3098 1565 
Q 3216 1334 3216 1081 
Q 3216 600 2842 251 
Q 2469 -97 1881 -97 
Q 1697 -97 1534 -69 
Q 1438 -53 1133 45 
Q 828 144 747 144 
Q 669 144 623 97 
Q 578 50 556 -97 
L 441 -97 
L 441 1356 
L 556 1356 
Q 638 900 775 673 
Q 913 447 1195 297 
Q 1478 147 1816 147 
Q 2206 147 2432 353 
Q 2659 559 2659 841 
Q 2659 997 2573 1156 
Q 2488 1316 2306 1453 
Q 2184 1547 1640 1851 
Q 1097 2156 867 2337 
Q 638 2519 519 2737 
Q 400 2956 400 3219 
Q 400 3675 750 4004 
Q 1100 4334 1641 4334 
Q 1978 4334 2356 4169 
Q 2531 4091 2603 4091 
Q 2684 4091 2736 4139 
Q 2788 4188 2819 4334 
L 2934 4334 
z
" transform="scale(0.015625)"/>
      <path id="TimesNewRomanPSMT-6d" d="M 1050 2338 
Q 1363 2650 1419 2697 
Q 1559 2816 1721 2881 
Q 1884 2947 2044 2947 
Q 2313 2947 2506 2790 
Q 2700 2634 2766 2338 
Q 3088 2713 3309 2830 
Q 3531 2947 3766 2947 
Q 3994 2947 4170 2830 
Q 4347 2713 4450 2447 
Q 4519 2266 4519 1878 
L 4519 647 
Q 4519 378 4559 278 
Q 4591 209 4675 161 
Q 4759 113 4950 113 
L 4950 0 
L 3538 0 
L 3538 113 
L 3597 113 
Q 3781 113 3884 184 
Q 3956 234 3988 344 
Q 4000 397 4000 647 
L 4000 1878 
Q 4000 2228 3916 2372 
Q 3794 2572 3525 2572 
Q 3359 2572 3192 2489 
Q 3025 2406 2788 2181 
L 2781 2147 
L 2788 2013 
L 2788 647 
Q 2788 353 2820 281 
Q 2853 209 2943 161 
Q 3034 113 3253 113 
L 3253 0 
L 1806 0 
L 1806 113 
Q 2044 113 2133 169 
Q 2222 225 2256 338 
Q 2272 391 2272 647 
L 2272 1878 
Q 2272 2228 2169 2381 
Q 2031 2581 1784 2581 
Q 1616 2581 1450 2491 
Q 1191 2353 1050 2181 
L 1050 647 
Q 1050 366 1089 281 
Q 1128 197 1204 155 
Q 1281 113 1516 113 
L 1516 0 
L 100 0 
L 100 113 
Q 297 113 375 155 
Q 453 197 493 289 
Q 534 381 534 647 
L 534 1741 
Q 534 2213 506 2350 
Q 484 2453 437 2492 
Q 391 2531 309 2531 
Q 222 2531 100 2484 
L 53 2597 
L 916 2947 
L 1050 2947 
L 1050 2338 
z
" transform="scale(0.015625)"/>
      <path id="TimesNewRomanPSMT-61" d="M 1822 413 
Q 1381 72 1269 19 
Q 1100 -59 909 -59 
Q 613 -59 420 144 
Q 228 347 228 678 
Q 228 888 322 1041 
Q 450 1253 767 1440 
Q 1084 1628 1822 1897 
L 1822 2009 
Q 1822 2438 1686 2597 
Q 1550 2756 1291 2756 
Q 1094 2756 978 2650 
Q 859 2544 859 2406 
L 866 2225 
Q 866 2081 792 2003 
Q 719 1925 600 1925 
Q 484 1925 411 2006 
Q 338 2088 338 2228 
Q 338 2497 613 2722 
Q 888 2947 1384 2947 
Q 1766 2947 2009 2819 
Q 2194 2722 2281 2516 
Q 2338 2381 2338 1966 
L 2338 994 
Q 2338 584 2353 492 
Q 2369 400 2405 369 
Q 2441 338 2488 338 
Q 2538 338 2575 359 
Q 2641 400 2828 588 
L 2828 413 
Q 2478 -56 2159 -56 
Q 2006 -56 1915 50 
Q 1825 156 1822 413 
z
M 1822 616 
L 1822 1706 
Q 1350 1519 1213 1441 
Q 966 1303 859 1153 
Q 753 1003 753 825 
Q 753 600 887 451 
Q 1022 303 1197 303 
Q 1434 303 1822 616 
z
" transform="scale(0.015625)"/>
      <path id="TimesNewRomanPSMT-72" d="M 1038 2947 
L 1038 2303 
Q 1397 2947 1775 2947 
Q 1947 2947 2059 2842 
Q 2172 2738 2172 2600 
Q 2172 2478 2090 2393 
Q 2009 2309 1897 2309 
Q 1788 2309 1652 2417 
Q 1516 2525 1450 2525 
Q 1394 2525 1328 2463 
Q 1188 2334 1038 2041 
L 1038 669 
Q 1038 431 1097 309 
Q 1138 225 1241 169 
Q 1344 113 1538 113 
L 1538 0 
L 72 0 
L 72 113 
Q 291 113 397 181 
Q 475 231 506 341 
Q 522 394 522 644 
L 522 1753 
Q 522 2253 501 2348 
Q 481 2444 426 2487 
Q 372 2531 291 2531 
Q 194 2531 72 2484 
L 41 2597 
L 906 2947 
L 1038 2947 
z
" transform="scale(0.015625)"/>
      <path id="TimesNewRomanPSMT-20" transform="scale(0.015625)"/>
      <path id="TimesNewRomanPSMT-67" d="M 966 1044 
Q 703 1172 562 1401 
Q 422 1631 422 1909 
Q 422 2334 742 2640 
Q 1063 2947 1563 2947 
Q 1972 2947 2272 2747 
L 2878 2747 
Q 3013 2747 3034 2739 
Q 3056 2731 3066 2713 
Q 3084 2684 3084 2613 
Q 3084 2531 3069 2500 
Q 3059 2484 3036 2475 
Q 3013 2466 2878 2466 
L 2506 2466 
Q 2681 2241 2681 1891 
Q 2681 1491 2375 1206 
Q 2069 922 1553 922 
Q 1341 922 1119 984 
Q 981 866 932 777 
Q 884 688 884 625 
Q 884 572 936 522 
Q 988 472 1138 450 
Q 1225 438 1575 428 
Q 2219 413 2409 384 
Q 2700 344 2873 169 
Q 3047 -6 3047 -263 
Q 3047 -616 2716 -925 
Q 2228 -1381 1444 -1381 
Q 841 -1381 425 -1109 
Q 191 -953 191 -784 
Q 191 -709 225 -634 
Q 278 -519 444 -313 
Q 466 -284 763 25 
Q 600 122 533 198 
Q 466 275 466 372 
Q 466 481 555 628 
Q 644 775 966 1044 
z
M 1509 2797 
Q 1278 2797 1122 2612 
Q 966 2428 966 2047 
Q 966 1553 1178 1281 
Q 1341 1075 1591 1075 
Q 1828 1075 1981 1253 
Q 2134 1431 2134 1813 
Q 2134 2309 1919 2591 
Q 1759 2797 1509 2797 
z
M 934 0 
Q 788 -159 713 -296 
Q 638 -434 638 -550 
Q 638 -700 819 -813 
Q 1131 -1006 1722 -1006 
Q 2284 -1006 2551 -807 
Q 2819 -609 2819 -384 
Q 2819 -222 2659 -153 
Q 2497 -84 2016 -72 
Q 1313 -53 934 0 
z
" transform="scale(0.015625)"/>
      <path id="TimesNewRomanPSMT-65" d="M 681 1784 
Q 678 1147 991 784 
Q 1303 422 1725 422 
Q 2006 422 2214 576 
Q 2422 731 2563 1106 
L 2659 1044 
Q 2594 616 2278 264 
Q 1963 -88 1488 -88 
Q 972 -88 605 314 
Q 238 716 238 1394 
Q 238 2128 614 2539 
Q 991 2950 1559 2950 
Q 2041 2950 2350 2633 
Q 2659 2316 2659 1784 
L 681 1784 
z
M 681 1966 
L 2006 1966 
Q 1991 2241 1941 2353 
Q 1863 2528 1708 2628 
Q 1553 2728 1384 2728 
Q 1125 2728 920 2526 
Q 716 2325 681 1966 
z
" transform="scale(0.015625)"/>
      <path id="TimesNewRomanPSMT-6e" d="M 1034 2341 
Q 1538 2947 1994 2947 
Q 2228 2947 2397 2830 
Q 2566 2713 2666 2444 
Q 2734 2256 2734 1869 
L 2734 647 
Q 2734 375 2778 278 
Q 2813 200 2889 156 
Q 2966 113 3172 113 
L 3172 0 
L 1756 0 
L 1756 113 
L 1816 113 
Q 2016 113 2095 173 
Q 2175 234 2206 353 
Q 2219 400 2219 647 
L 2219 1819 
Q 2219 2209 2117 2386 
Q 2016 2563 1775 2563 
Q 1403 2563 1034 2156 
L 1034 647 
Q 1034 356 1069 288 
Q 1113 197 1189 155 
Q 1266 113 1500 113 
L 1500 0 
L 84 0 
L 84 113 
L 147 113 
Q 366 113 442 223 
Q 519 334 519 647 
L 519 1709 
Q 519 2225 495 2337 
Q 472 2450 423 2490 
Q 375 2531 294 2531 
Q 206 2531 84 2484 
L 38 2597 
L 900 2947 
L 1034 2947 
L 1034 2341 
z
" transform="scale(0.015625)"/>
     </defs>
     <use xlink:href="#TimesNewRomanPSMT-53"/>
     <use xlink:href="#TimesNewRomanPSMT-6d" x="55.615234"/>
     <use xlink:href="#TimesNewRomanPSMT-61" x="133.398438"/>
     <use xlink:href="#TimesNewRomanPSMT-72" x="177.783203"/>
     <use xlink:href="#TimesNewRomanPSMT-74" x="211.083984"/>
     <use xlink:href="#TimesNewRomanPSMT-20" x="238.867188"/>
     <use xlink:href="#TimesNewRomanPSMT-61" x="263.867188"/>
     <use xlink:href="#TimesNewRomanPSMT-67" x="308.251953"/>
     <use xlink:href="#TimesNewRomanPSMT-65" x="358.251953"/>
     <use xlink:href="#TimesNewRomanPSMT-6e" x="402.636719"/>
     <use xlink:href="#TimesNewRomanPSMT-74" x="452.636719"/>
    </g>
   </g>
   <g id="line2d_20">
    <path d="M 570.011719 450.363281 
L 600.011719 450.363281 
L 630.011719 450.363281 
" style="fill: none; stroke-dasharray: 11.1,4.8; stroke-dashoffset: 0; stroke: #0000ff; stroke-width: 3"/>
   </g>
   <g id="text_20">
    <!-- Naive agent -->
    <g transform="translate(654.011719 460.863281) scale(0.3 -0.3)">
     <defs>
      <path id="TimesNewRomanPSMT-4e" d="M -84 4238 
L 1066 4238 
L 3656 1059 
L 3656 3503 
Q 3656 3894 3569 3991 
Q 3453 4122 3203 4122 
L 3056 4122 
L 3056 4238 
L 4531 4238 
L 4531 4122 
L 4381 4122 
Q 4113 4122 4000 3959 
Q 3931 3859 3931 3503 
L 3931 -69 
L 3819 -69 
L 1025 3344 
L 1025 734 
Q 1025 344 1109 247 
Q 1228 116 1475 116 
L 1625 116 
L 1625 0 
L 150 0 
L 150 116 
L 297 116 
Q 569 116 681 278 
Q 750 378 750 734 
L 750 3681 
Q 566 3897 470 3965 
Q 375 4034 191 4094 
Q 100 4122 -84 4122 
L -84 4238 
z
" transform="scale(0.015625)"/>
      <path id="TimesNewRomanPSMT-69" d="M 928 4444 
Q 1059 4444 1151 4351 
Q 1244 4259 1244 4128 
Q 1244 3997 1151 3903 
Q 1059 3809 928 3809 
Q 797 3809 703 3903 
Q 609 3997 609 4128 
Q 609 4259 701 4351 
Q 794 4444 928 4444 
z
M 1188 2947 
L 1188 647 
Q 1188 378 1227 289 
Q 1266 200 1342 156 
Q 1419 113 1622 113 
L 1622 0 
L 231 0 
L 231 113 
Q 441 113 512 153 
Q 584 194 626 287 
Q 669 381 669 647 
L 669 1750 
Q 669 2216 641 2353 
Q 619 2453 572 2492 
Q 525 2531 444 2531 
Q 356 2531 231 2484 
L 188 2597 
L 1050 2947 
L 1188 2947 
z
" transform="scale(0.015625)"/>
      <path id="TimesNewRomanPSMT-76" d="M 53 2863 
L 1400 2863 
L 1400 2747 
L 1313 2747 
Q 1191 2747 1127 2687 
Q 1063 2628 1063 2528 
Q 1063 2419 1128 2269 
L 1794 688 
L 2463 2328 
Q 2534 2503 2534 2594 
Q 2534 2638 2509 2666 
Q 2475 2713 2422 2730 
Q 2369 2747 2206 2747 
L 2206 2863 
L 3141 2863 
L 3141 2747 
Q 2978 2734 2916 2681 
Q 2806 2588 2719 2369 
L 1703 -88 
L 1575 -88 
L 553 2328 
Q 484 2497 421 2570 
Q 359 2644 263 2694 
Q 209 2722 53 2747 
L 53 2863 
z
" transform="scale(0.015625)"/>
     </defs>
     <use xlink:href="#TimesNewRomanPSMT-4e"/>
     <use xlink:href="#TimesNewRomanPSMT-61" x="72.216797"/>
     <use xlink:href="#TimesNewRomanPSMT-69" x="116.601562"/>
     <use xlink:href="#TimesNewRomanPSMT-76" x="144.384766"/>
     <use xlink:href="#TimesNewRomanPSMT-65" x="194.384766"/>
     <use xlink:href="#TimesNewRomanPSMT-20" x="238.769531"/>
     <use xlink:href="#TimesNewRomanPSMT-61" x="263.769531"/>
     <use xlink:href="#TimesNewRomanPSMT-67" x="308.154297"/>
     <use xlink:href="#TimesNewRomanPSMT-65" x="358.154297"/>
     <use xlink:href="#TimesNewRomanPSMT-6e" x="402.539062"/>
     <use xlink:href="#TimesNewRomanPSMT-74" x="452.539062"/>
    </g>
   </g>
  </g>
 </g>
 <defs>
  <clipPath id="p2b8d984da8">
   <rect x="111.066" y="32.4" width="415.866" height="298.356923"/>
  </clipPath>
  <clipPath id="p51e4af11d0">
   <rect x="631.734" y="32.4" width="415.866" height="298.356923"/>
  </clipPath>
 </defs>
</svg>
